<?xml version="1.0" encoding="UTF-8" standalone="no"?><!DOCTYPE svg PUBLIC "-//W3C//DTD SVG 1.1//EN" "http://www.w3.org/Graphics/SVG/1.1/DTD/svg11.dtd"><svg width="100%" height="100%" viewBox="0 0 28 28" version="1.1" xmlns="http://www.w3.org/2000/svg" xmlns:xlink="http://www.w3.org/1999/xlink" xml:space="preserve" xmlns:serif="http://www.serif.com/" style="fill-rule:evenodd;clip-rule:evenodd;stroke-linejoin:round;stroke-miterlimit:1.41421;"><g><path id="_-Partneři---Art-Text-" serif:id="(Partneři) (Art Text)" d="M15.331,21.795l-0.129,0.433l-6.539,0l0.164,-0.433c0.657,-0.016 1.09,-0.071 1.301,-0.164c0.344,-0.133 0.598,-0.317 0.762,-0.551c0.258,-0.367 0.523,-1.023 0.797,-1.969l2.765,-9.586c0.235,-0.797 0.352,-1.398 0.352,-1.804c0,-0.204 -0.051,-0.375 -0.153,-0.516c-0.101,-0.141 -0.255,-0.248 -0.462,-0.322c-0.207,-0.075 -0.612,-0.112 -1.213,-0.112l0.14,-0.433l6.141,0l-0.129,0.433c-0.5,-0.007 -0.871,0.047 -1.113,0.164c-0.352,0.157 -0.619,0.379 -0.803,0.668c-0.184,0.289 -0.42,0.93 -0.709,1.922l-2.754,9.586c-0.25,0.883 -0.375,1.446 -0.375,1.688c0,0.195 0.049,0.361 0.147,0.498c0.097,0.136 0.254,0.242 0.468,0.316c0.215,0.074 0.662,0.135 1.342,0.182Z" style="fill:#4e4e4e;fill-rule:nonzero;"/><g><rect x="0.3" y="0.659" width="27.321" height="27.321" style="fill:none;"/></g></g></svg>