<?xml version="1.0" encoding="UTF-8" standalone="no"?><!DOCTYPE svg PUBLIC "-//W3C//DTD SVG 1.1//EN" "http://www.w3.org/Graphics/SVG/1.1/DTD/svg11.dtd"><svg width="100%" height="100%" viewBox="0 0 28 28" version="1.1" xmlns="http://www.w3.org/2000/svg" xmlns:xlink="http://www.w3.org/1999/xlink" xml:space="preserve" xmlns:serif="http://www.serif.com/" style="fill-rule:evenodd;clip-rule:evenodd;stroke-linejoin:round;stroke-miterlimit:1.41421;"><g><rect x="0.289" y="0.659" width="27.321" height="27.321" style="fill:none;"/><g><path id="_-Partneři---Art-Text-" serif:id="(Partneři) (Art Text)" d="M8.037,2.964l-0.551,0l-1.528,0.72l0,0.632l1.36,-0.6l0,4.815l0.719,0l0,-5.567Z" style="fill:#4e4e4e;fill-rule:nonzero;stroke:#4e4e4e;stroke-width:0.55px;"/><path id="_-Partneři---Art-Text-1" serif:id="(Partneři) (Art Text)" d="M5.728,12.328c0.608,-0.264 1.12,-0.416 1.6,-0.416c0.656,0 0.96,0.336 0.96,0.888c0,0.577 -0.152,1.409 -2.64,3.521l0,0.639l3.535,0l0,-0.639l-2.655,0c1.944,-1.616 2.519,-2.72 2.519,-3.601c0,-0.848 -0.551,-1.447 -1.615,-1.447c-0.472,0 -1.032,0.12 -1.704,0.4l0,0.655Z" style="fill:#4e4e4e;fill-rule:nonzero;stroke:#4e4e4e;stroke-width:0.55px;"/><path id="_-Partneři---Art-Text-2" serif:id="(Partneři) (Art Text)" d="M6.768,22.575c1.032,0 1.464,0.448 1.464,1.024c0,0.56 -0.56,0.985 -1.256,0.985c-0.56,0 -0.952,-0.065 -1.488,-0.241l0,0.552c0.432,0.192 0.792,0.328 1.496,0.328c1.288,0 2.007,-0.816 2.007,-1.736c0,-0.648 -0.367,-1.136 -1.103,-1.336c0.488,-0.224 0.911,-0.728 0.911,-1.376c0,-0.952 -0.807,-1.359 -1.631,-1.359c-0.584,0 -1.128,0.167 -1.6,0.367l0,0.656c0.568,-0.248 0.992,-0.384 1.488,-0.384c0.576,0 0.984,0.288 0.984,0.832c0,0.552 -0.424,1.024 -1.272,1.049l0,0.639Z" style="fill:#4e4e4e;fill-rule:nonzero;stroke:#4e4e4e;stroke-width:0.55px;"/><path d="M12.298,5.821l9.042,0" style="fill:none;stroke:#4e4e4e;stroke-width:1.4px;stroke-linecap:round;stroke-linejoin:miter;stroke-miterlimit:1.5;"/><path d="M12.298,13.543l9.042,0" style="fill:none;stroke:#4e4e4e;stroke-width:1.4px;stroke-linecap:round;stroke-linejoin:miter;stroke-miterlimit:1.5;"/><path d="M12.298,21.858l9.042,0" style="fill:none;stroke:#4e4e4e;stroke-width:1.4px;stroke-linecap:round;stroke-linejoin:miter;stroke-miterlimit:1.5;"/></g></g></svg>