<?xml version="1.0" encoding="UTF-8" standalone="no"?><!DOCTYPE svg PUBLIC "-//W3C//DTD SVG 1.1//EN" "http://www.w3.org/Graphics/SVG/1.1/DTD/svg11.dtd"><svg width="100%" height="100%" viewBox="0 0 33 33" version="1.1" xmlns="http://www.w3.org/2000/svg" xmlns:xlink="http://www.w3.org/1999/xlink" xml:space="preserve" xmlns:serif="http://www.serif.com/" style="fill-rule:evenodd;clip-rule:evenodd;stroke-linejoin:round;stroke-miterlimit:1.41421;"><path d="M13.701,24.997c-6.294,0 -11.397,-5.013 -11.397,-11.207c0,-6.194 5.103,-11.217 11.397,-11.217c6.294,0 11.397,5.023 11.397,11.217c0,6.194 -5.103,11.207 -11.397,11.207Zm18.24,5.803l-8.264,-8.135c2.164,-2.351 3.493,-5.453 3.493,-8.875c0,-7.325 -6.03,-13.258 -13.469,-13.258c-7.438,0 -13.468,5.933 -13.468,13.258c0,7.314 6.03,13.248 13.468,13.248c3.214,0 6.162,-1.111 8.478,-2.962l8.298,8.165c0.404,0.401 1.059,0.401 1.464,0c0.405,-0.39 0.405,-1.04 0,-1.441Zm-13.177,-17.851l-4,0l0,-4.002c0,-0.561 -0.447,-1.001 -1,-1.001c-0.551,0 -0.999,0.44 -0.999,1.001l0,4.002l-3.998,0c-0.551,0 -0.999,0.18 -0.999,0.731c0,0.56 0.448,1.271 0.999,1.271l3.998,0l0,4.002c0,0.56 0.448,1.001 0.999,1.001c0.553,0 1,-0.441 1,-1.001l0,-4.002l4,0c0.551,0 0.999,-0.451 0.999,-1.001c0,-0.55 -0.448,-1.001 -0.999,-1.001Z" style="fill:#4e4e4e;"/></svg>