<?xml version="1.0" encoding="UTF-8" standalone="no"?><!DOCTYPE svg PUBLIC "-//W3C//DTD SVG 1.1//EN" "http://www.w3.org/Graphics/SVG/1.1/DTD/svg11.dtd"><svg width="100%" height="100%" viewBox="0 0 33 33" version="1.1" xmlns="http://www.w3.org/2000/svg" xmlns:xlink="http://www.w3.org/1999/xlink" xml:space="preserve" xmlns:serif="http://www.serif.com/" style="fill-rule:evenodd;clip-rule:evenodd;stroke-linejoin:round;stroke-miterlimit:1.41421;"><path d="M13.701,24.782c-6.294,0 -11.397,-5.014 -11.397,-11.207c0,-6.194 5.103,-11.217 11.397,-11.217c6.294,0 11.397,5.023 11.397,11.217c0,6.193 -5.103,11.207 -11.397,11.207Zm18.24,5.803l-8.264,-8.135c2.164,-2.351 3.493,-5.453 3.493,-8.875c0,-7.325 -6.03,-13.259 -13.469,-13.259c-7.438,0 -13.468,5.934 -13.468,13.259c0,7.314 6.03,13.248 13.468,13.248c3.214,0 6.162,-1.111 8.478,-2.962l8.298,8.165c0.404,0.4 1.059,0.4 1.464,0c0.405,-0.39 0.405,-1.041 0,-1.441Zm-13.177,-17.851l-9.997,0c-0.551,0 -0.999,0.18 -0.999,0.73c0,0.561 0.448,1.271 0.999,1.271l9.997,0c0.551,0 0.999,-0.45 0.999,-1c0,-0.551 -0.448,-1.001 -0.999,-1.001Z" style="fill:#4e4e4e;"/></svg>