<?xml version="1.0" encoding="UTF-8" standalone="no"?><!DOCTYPE svg PUBLIC "-//W3C//DTD SVG 1.1//EN" "http://www.w3.org/Graphics/SVG/1.1/DTD/svg11.dtd"><svg width="100%" height="100%" viewBox="0 0 22 29" version="1.1" xmlns="http://www.w3.org/2000/svg" xmlns:xlink="http://www.w3.org/1999/xlink" xml:space="preserve" xmlns:serif="http://www.serif.com/" style="fill-rule:evenodd;clip-rule:evenodd;stroke-linejoin:round;stroke-miterlimit:1.41421;"><path id="documents" d="M16.429,11.764l0,11.51l3.41,0c0.471,0 0.853,-0.379 0.853,-0.847l0,-14.499l-3.412,0c-0.941,0 -1.704,-0.756 -1.704,-1.711l0,-4.257l-8.529,0c-0.469,0 -0.849,0.388 -0.849,0.848l0,2.562l5.116,0l5.115,5.968l0,0.426Zm-11.083,-6.394l0,-2.552c0,-0.945 0.764,-1.711 1.707,-1.711l9.376,0l5.116,5.968l0,15.354c0,0.932 -0.763,1.697 -1.703,1.697l-3.413,0l0,2.566c0,0.932 -0.762,1.697 -1.703,1.697l-12.793,0c-0.943,0 -1.703,-0.766 -1.703,-1.711l0,-19.597c0,-0.945 0.765,-1.711 1.708,-1.711l3.408,0Zm11.083,-2.984l0,3.829c0,0.475 0.384,0.86 0.85,0.86l3.157,0l-4.007,-4.689Zm-5.968,3.836l-8.53,0c-0.468,0 -0.848,0.389 -0.848,0.849l0,19.617c0,0.469 0.387,0.849 0.852,0.849l12.789,0c0.471,0 0.852,-0.38 0.852,-0.847l0,-14.5l-3.412,0c-0.94,0 -1.703,-0.755 -1.703,-1.71l0,-4.258Zm0.853,0.427l0,3.829c0,0.475 0.384,0.86 0.849,0.86l3.158,0l-4.007,-4.689Z" style="fill:#4e4e4e;stroke:#4e4e4e;stroke-width:0.41px;"/></svg>