<?xml version="1.0" encoding="UTF-8" standalone="no"?><!DOCTYPE svg PUBLIC "-//W3C//DTD SVG 1.1//EN" "http://www.w3.org/Graphics/SVG/1.1/DTD/svg11.dtd"><svg width="100%" height="100%" viewBox="0 0 29 28" version="1.1" xmlns="http://www.w3.org/2000/svg" xmlns:xlink="http://www.w3.org/1999/xlink" xml:space="preserve" xmlns:serif="http://www.serif.com/" style="fill-rule:evenodd;clip-rule:evenodd;stroke-linecap:round;stroke-miterlimit:1.5;"><g><path d="M8.068,20.129l12.339,-12.339" style="fill:none;stroke:#4e4e4e;stroke-width:2px;"/><path d="M13.525,11.067c-0.223,-0.294 -0.41,-0.59 -0.548,-0.888c-0.567,-1.222 -0.313,-2.741 0.614,-3.741c1.798,-1.845 3.619,-3.666 5.464,-5.464c1.263,-1.171 3.337,-1.205 4.642,-0.002c1.536,1.491 3.447,2.935 4.14,4.43c0.567,1.22 0.314,2.739 -0.614,3.74c-1.798,1.845 -3.619,3.667 -5.464,5.464c-1.252,1.161 -3.312,1.186 -4.601,0.038l1.367,-1.367c0.545,0.436 1.386,0.412 1.905,-0.069c1.83,-1.784 3.684,-3.548 5.42,-5.422c0.481,-0.546 0.471,-1.42 -0.026,-1.959c-1.143,-1.178 -2.277,-2.368 -3.483,-3.48c-0.542,-0.481 -1.421,-0.472 -1.957,0.025c-1.811,1.765 -3.576,3.576 -5.364,5.364c-0.504,0.517 -0.544,1.373 -0.099,1.936l-1.396,1.395Z" style="fill:#4e4e4e;fill-rule:nonzero;"/><path d="M14.953,16.849c0.239,0.318 0.437,0.639 0.579,0.966c0.526,1.208 0.26,2.687 -0.647,3.666c-1.798,1.844 -3.62,3.666 -5.465,5.464c-1.267,1.174 -3.369,1.187 -4.643,0c-1.517,-1.473 -3.402,-2.929 -4.104,-4.354c-0.607,-1.232 -0.366,-2.794 0.579,-3.814c1.798,-1.845 3.62,-3.666 5.464,-5.464c1.253,-1.161 3.32,-1.18 4.602,-0.038l-1.367,1.367c-0.544,-0.43 -1.36,-0.413 -1.878,0.044c-1.864,1.727 -3.595,3.592 -5.392,5.388c-0.521,0.535 -0.549,1.427 -0.056,1.989c1.128,1.21 2.299,2.382 3.509,3.509c0.548,0.481 1.422,0.471 1.958,-0.025c1.829,-1.784 3.683,-3.547 5.42,-5.422c0.456,-0.518 0.475,-1.332 0.043,-1.878l1.398,-1.398Z" style="fill:#4e4e4e;fill-rule:nonzero;"/></g></svg>