<?xml version="1.0" encoding="UTF-8" standalone="no"?><!DOCTYPE svg PUBLIC "-//W3C//DTD SVG 1.1//EN" "http://www.w3.org/Graphics/SVG/1.1/DTD/svg11.dtd"><svg width="100%" height="100%" viewBox="0 0 35 35" version="1.1" xmlns="http://www.w3.org/2000/svg" xmlns:xlink="http://www.w3.org/1999/xlink" xml:space="preserve" xmlns:serif="http://www.serif.com/" style="fill-rule:evenodd;clip-rule:evenodd;stroke-linecap:round;stroke-linejoin:round;stroke-miterlimit:1.5;"><g><g><g><path d="M15.17,30.002c-0.042,-6.433 -0.175,-9.354 2.798,-9.366c2.651,-0.011 2.671,3.056 2.741,9.366" style="fill:none;stroke:#4e4e4e;stroke-width:1.36px;"/><path d="M15.156,26.74l5.332,0" style="fill:none;stroke:#4e4e4e;stroke-width:1.36px;"/></g><g><path d="M6.953,30.002c-0.043,-6.433 -0.175,-9.354 2.798,-9.366c2.651,-0.011 2.671,3.056 2.74,9.366" style="fill:none;stroke:#4e4e4e;stroke-width:1.36px;"/><path d="M6.939,26.74l5.332,0" style="fill:none;stroke:#4e4e4e;stroke-width:1.36px;"/></g><g><path d="M23.622,30.002c-0.042,-6.433 -0.175,-9.354 2.798,-9.366c2.651,-0.011 2.671,3.056 2.741,9.366" style="fill:none;stroke:#4e4e4e;stroke-width:1.36px;"/><path d="M23.608,26.74l5.332,0" style="fill:none;stroke:#4e4e4e;stroke-width:1.36px;"/></g></g><rect x="0.62" y="0.902" width="33.924" height="33.924" style="fill:none;"/></g></svg>