<?xml version="1.0" encoding="UTF-8" standalone="no"?><!DOCTYPE svg PUBLIC "-//W3C//DTD SVG 1.1//EN" "http://www.w3.org/Graphics/SVG/1.1/DTD/svg11.dtd"><svg width="100%" height="100%" viewBox="0 0 27 29" version="1.1" xmlns="http://www.w3.org/2000/svg" xmlns:xlink="http://www.w3.org/1999/xlink" xml:space="preserve" xmlns:serif="http://www.serif.com/" style="fill-rule:evenodd;clip-rule:evenodd;stroke-linejoin:round;stroke-miterlimit:1.41421;"><path id="Fill-1" d="M24.638,13.983c0,3.997 -0.637,7.383 -1.843,9.793c-0.788,1.574 -2.194,3.451 -4.431,3.451l-6.956,0c-0.054,-0.005 -0.641,-0.07 -1.527,-0.732c-0.882,-0.661 -2.236,-2.052 -3.677,-4.934c-2.826,-5.653 -3.694,-7.433 -3.703,-7.45c-0.001,-0.003 -0.001,-0.004 -0.003,-0.005c-0.35,-0.702 -0.101,-1.62 0.543,-2.008c0.29,-0.174 0.628,-0.219 0.955,-0.131c0.345,0.095 0.637,0.329 0.817,0.657c0.004,0.005 0.006,0.011 0.009,0.015l2.178,3.771c0.443,0.813 0.944,1.154 1.486,1.016c0.545,-0.138 0.818,-0.683 0.818,-1.614l0,-10.891c0,-0.768 0.626,-1.394 1.394,-1.394c0.768,0 1.394,0.626 1.394,1.394l0,9.062c0,0.385 0.313,0.697 0.697,0.697c0.385,0 0.698,-0.312 0.698,-0.697l0,-10.456c0,-0.768 0.625,-1.394 1.394,-1.394c0.768,0 1.394,0.626 1.394,1.394l0,10.456c0,0.385 0.312,0.697 0.697,0.697c0.384,0 0.697,-0.312 0.697,-0.697l0,-9.062c0,-0.768 0.626,-1.394 1.394,-1.394c0.768,0 1.394,0.626 1.394,1.394l0,10.456c0,0.385 0.312,0.697 0.697,0.697c0.385,0 0.697,-0.312 0.697,-0.697l0,-6.273c0,-0.769 0.626,-1.394 1.394,-1.394c0.768,0 1.394,0.625 1.394,1.394l0,4.879l-0.001,0Zm-1.394,-7.668c-0.506,0 -0.985,0.137 -1.394,0.377l0,-1.771c0,-1.539 -1.249,-2.788 -2.789,-2.788c-0.574,0 -1.106,0.174 -1.551,0.473c-0.382,-1.085 -1.417,-1.867 -2.631,-1.867c-1.214,0 -2.248,0.782 -2.63,1.867c-0.444,-0.299 -0.978,-0.473 -1.552,-0.473c-1.539,0 -2.788,1.249 -2.788,2.788l0,10.279l-1.877,-3.252c-0.364,-0.664 -0.957,-1.134 -1.671,-1.329c-0.696,-0.19 -1.419,-0.089 -2.038,0.282c-1.265,0.758 -1.747,2.473 -1.074,3.822c0.042,0.085 0.932,1.906 3.709,7.458c1.306,2.614 2.742,4.484 4.263,5.555c1.196,0.84 2.021,0.883 2.174,0.883l6.971,0c1.186,0 2.289,-0.386 3.28,-1.146c0.929,-0.715 1.737,-1.749 2.397,-3.072c1.302,-2.604 1.99,-6.207 1.99,-10.42l0,-4.879c0,-1.537 -1.25,-2.788 -2.788,-2.788l-0.001,0.001Z" style="fill:#4e4e4e;"/></svg>