<?xml version="1.0" encoding="UTF-8" standalone="no"?><!DOCTYPE svg PUBLIC "-//W3C//DTD SVG 1.1//EN" "http://www.w3.org/Graphics/SVG/1.1/DTD/svg11.dtd"><svg width="100%" height="100%" viewBox="0 0 17 19" version="1.1" xmlns="http://www.w3.org/2000/svg" xmlns:xlink="http://www.w3.org/1999/xlink" xml:space="preserve" xmlns:serif="http://www.serif.com/" style="fill-rule:evenodd;clip-rule:evenodd;stroke-linejoin:round;stroke-miterlimit:1.41421;"><path d="M10.495,13.441l0,-3.296c0,0 -1.451,-0.012 -1.853,-0.012c-2.56,0 -6.039,1.995 -7.364,3.695c0.02,-2.308 3.03,-7.243 7.364,-7.378c0.32,-0.012 1.853,0.007 1.853,0.007l0,-3.321l4.7,5.156l-4.7,5.149Zm5.951,-5.616l-6.131,-6.726c-0.243,-0.24 -0.637,-0.24 -0.88,0c-0.14,0.141 -0.19,0.325 -0.169,0.509l0,3.621c-5.09,0 -9.217,4.124 -9.217,9.212c0,1.308 0.275,2.547 0.765,3.677c0.727,-3.842 4.391,-6.758 8.442,-6.758c0,0.209 0.01,3.615 0.01,3.615c-0.021,0.178 0.029,0.369 0.169,0.504c0.001,0.006 0.003,0.006 0.005,0.006c0.111,0.116 0.267,0.19 0.441,0.19c0.191,0 0.355,-0.092 0.468,-0.233l6.097,-6.684c0.129,-0.129 0.184,-0.301 0.176,-0.466c0.008,-0.172 -0.047,-0.338 -0.176,-0.467Z" style="fill:#4e4e4e;"/></svg>