<?xml version="1.0" encoding="UTF-8" standalone="no"?><!DOCTYPE svg PUBLIC "-//W3C//DTD SVG 1.1//EN" "http://www.w3.org/Graphics/SVG/1.1/DTD/svg11.dtd"><svg width="100%" height="100%" viewBox="0 0 27 27" version="1.1" xmlns="http://www.w3.org/2000/svg" xmlns:xlink="http://www.w3.org/1999/xlink" xml:space="preserve" xmlns:serif="http://www.serif.com/" style="fill-rule:evenodd;clip-rule:evenodd;stroke-linejoin:round;stroke-miterlimit:1.41421;"><path id="pen-angled" d="M21.59,8.417l-14.487,14.505l-3.345,-3.344l14.495,-14.498l3.337,3.337Zm0.907,-0.908l2.22,-2.222c0.501,-0.501 0.497,-1.316 -0.006,-1.818l-1.515,-1.51c-0.504,-0.503 -1.316,-0.507 -1.818,-0.004l-2.217,2.218l3.336,3.336Zm-19.571,13.052l-0.821,3.996l4.025,-0.792l-3.204,-3.204Zm-1.16,-0.784l-1.283,6.419l6.418,-1.284l18.716,-18.716c1.006,-1.007 1.009,-2.636 0.012,-3.633l-1.514,-1.514c-1,-1 -2.615,-1.005 -3.633,0.012l-18.716,18.716Z" style="fill:#4e4e4e;"/></svg>