<?xml version="1.0" encoding="UTF-8" standalone="no"?><!DOCTYPE svg PUBLIC "-//W3C//DTD SVG 1.1//EN" "http://www.w3.org/Graphics/SVG/1.1/DTD/svg11.dtd"><svg width="100%" height="100%" viewBox="0 0 28 28" version="1.1" xmlns="http://www.w3.org/2000/svg" xmlns:xlink="http://www.w3.org/1999/xlink" xml:space="preserve" xmlns:serif="http://www.serif.com/" style="fill-rule:evenodd;clip-rule:evenodd;stroke-linejoin:round;stroke-miterlimit:1.41421;"><g><g><path id="_-Partneři---Art-Text-" serif:id="(Partneři) (Art Text)" d="M5.785,14.896c0,1.341 0.98,2.321 2.321,2.321c1.342,0 2.322,-0.98 2.322,-2.321c0,-1.341 -0.98,-2.321 -2.322,-2.321c-1.341,0 -2.321,0.98 -2.321,2.321Z" style="fill:none;stroke:#4e4e4e;stroke-width:1.36px;"/><path id="_-Partneři---Art-Text-1" serif:id="(Partneři) (Art Text)" d="M5.785,22.66c0,1.342 0.98,2.321 2.321,2.321c1.342,0 2.322,-0.979 2.322,-2.321c0,-1.341 -0.98,-2.321 -2.322,-2.321c-1.341,0 -2.321,0.98 -2.321,2.321Z" style="fill:none;stroke:#4e4e4e;stroke-width:1.36px;"/><path id="_-Partneři---Art-Text-2" serif:id="(Partneři) (Art Text)" d="M5.785,6.821c0,1.341 0.98,2.321 2.321,2.321c1.342,0 2.322,-0.98 2.322,-2.321c0,-1.341 -0.98,-2.321 -2.322,-2.321c-1.341,0 -2.321,0.98 -2.321,2.321Z" style="fill:none;stroke:#4e4e4e;stroke-width:1.36px;"/><path d="M14.006,6.821l9.042,0" style="fill:none;stroke:#4e4e4e;stroke-width:1.4px;stroke-linecap:round;stroke-linejoin:miter;stroke-miterlimit:1.5;"/><path d="M14.006,14.74l9.042,0" style="fill:none;stroke:#4e4e4e;stroke-width:1.4px;stroke-linecap:round;stroke-linejoin:miter;stroke-miterlimit:1.5;"/><path d="M14.006,22.858l9.042,0" style="fill:none;stroke:#4e4e4e;stroke-width:1.4px;stroke-linecap:round;stroke-linejoin:miter;stroke-miterlimit:1.5;"/></g><rect x="0.346" y="0.659" width="27.321" height="27.321" style="fill:none;"/></g></svg>