<?xml version="1.0" encoding="UTF-8" standalone="no"?><!DOCTYPE svg PUBLIC "-//W3C//DTD SVG 1.1//EN" "http://www.w3.org/Graphics/SVG/1.1/DTD/svg11.dtd"><svg width="100%" height="100%" viewBox="0 0 22 28" version="1.1" xmlns="http://www.w3.org/2000/svg" xmlns:xlink="http://www.w3.org/1999/xlink" xml:space="preserve" xmlns:serif="http://www.serif.com/" style="fill-rule:evenodd;clip-rule:evenodd;stroke-linejoin:round;stroke-miterlimit:1.41421;"><path id="trash-can" d="M17.443,4.248l-2,0l0,-1.995c0,-1.107 -0.896,-2.005 -1.997,-2.005l-5.005,0c-1.103,0 -1.998,0.894 -1.998,2.005l0,1.995l-2,0l-4,0l0,1l2,0l0,18.993c0,1.661 1.334,3.007 3,3.007l11,0c1.657,0 3,-1.336 3,-3.007l0,-18.993l2,0l0,-1l-4,0Zm-14,1l0,19.006c0,1.101 0.894,1.994 1.992,1.994l11.016,0c1.101,0 1.992,-0.902 1.992,-1.994l0,-19.006l-15,0Zm3,2l0,17l1,0l0,-17l-1,0Zm4,0l0,17l1,0l0,-17l-1,0Zm4,0l0,17l1,0l0,-17l-1,0Zm-5.997,-6c-0.554,0 -1.003,0.443 -1.003,0.999l0,2.001l7,0l0,-2.001c0,-0.552 -0.438,-0.999 -1.003,-0.999l-4.994,0Z" style="fill:#4e4e4e;stroke:#4e4e4e;stroke-width:0.33px;"/></svg>