<?xml version="1.0" encoding="UTF-8" standalone="no"?><!DOCTYPE svg PUBLIC "-//W3C//DTD SVG 1.1//EN" "http://www.w3.org/Graphics/SVG/1.1/DTD/svg11.dtd"><svg width="100%" height="100%" viewBox="0 0 17 18" version="1.1" xmlns="http://www.w3.org/2000/svg" xmlns:xlink="http://www.w3.org/1999/xlink" xml:space="preserve" xmlns:serif="http://www.serif.com/" style="fill-rule:evenodd;clip-rule:evenodd;stroke-linejoin:round;stroke-miterlimit:1.41421;"><path d="M7.98,9.534c-0.402,0 -1.854,0.013 -1.854,0.013l0,3.296l-4.699,-5.15l4.699,-5.155l0,3.32c0,0 1.535,-0.018 1.854,-0.006c4.334,0.135 7.344,5.07 7.363,7.377c-1.324,-1.7 -4.804,-3.695 -7.363,-3.695Zm-0.624,-4.903l0,-3.621c0.02,-0.185 -0.029,-0.369 -0.169,-0.51c-0.243,-0.239 -0.637,-0.239 -0.88,0l-6.131,6.727c-0.13,0.129 -0.185,0.294 -0.176,0.466c-0.009,0.166 0.046,0.338 0.176,0.467l6.097,6.683c0.113,0.142 0.277,0.234 0.468,0.234c0.174,0 0.329,-0.074 0.441,-0.191c0.001,0 0.004,0 0.005,-0.006c0.14,-0.135 0.189,-0.325 0.169,-0.503c0,0 0.01,-3.406 0.01,-3.615c4.051,0 7.714,2.915 8.441,6.757c0.49,-1.129 0.765,-2.369 0.765,-3.676c0,-5.088 -4.127,-9.212 -9.216,-9.212Z" style="fill:#4e4e4e;"/></svg>