<?xml version="1.0" encoding="UTF-8" standalone="no"?><!DOCTYPE svg PUBLIC "-//W3C//DTD SVG 1.1//EN" "http://www.w3.org/Graphics/SVG/1.1/DTD/svg11.dtd"><svg width="100%" height="100%" viewBox="0 0 28 28" version="1.1" xmlns="http://www.w3.org/2000/svg" xmlns:xlink="http://www.w3.org/1999/xlink" xml:space="preserve" xmlns:serif="http://www.serif.com/" style="fill-rule:evenodd;clip-rule:evenodd;stroke-linejoin:round;stroke-miterlimit:1.41421;"><g><path id="_-Partneři---Art-Text-" serif:id="(Partneři) (Art Text)" d="M10.477,16.123l1.057,0c3.386,0 3.962,1.009 3.962,2.065c0,1.538 -1.825,2.042 -3.53,2.042l-1.489,0l0,-4.107Zm7.8,-5.543c0,-2.64 -1.966,-4.054 -5.902,-4.054l-5.471,0l0,16.701l5.399,0c4.44,0 7.006,-1.942 7.006,-4.726c0,-2.162 -1.559,-3.745 -4.077,-4.248c1.75,-0.528 3.045,-1.968 3.045,-3.673Zm-7.8,-1.057l1.201,0c1.946,0 2.786,0.432 2.786,1.537c0,1.177 -1.033,2.186 -3.17,2.186l-0.817,0l0,-3.723Z" style="fill:#4e4e4e;fill-rule:nonzero;"/><rect x="0.443" y="0.659" width="27.321" height="27.321" style="fill:none;"/></g></svg>